<?xml version="1.0" standalone="no"?><!DOCTYPE svg PUBLIC "-//W3C//DTD SVG 1.1//EN" "http://www.w3.org/Graphics/SVG/1.1/DTD/svg11.dtd"><svg t="1581230717231" class="icon" viewBox="0 0 1024 1024" version="1.1" xmlns="http://www.w3.org/2000/svg" p-id="4500" id="mx_n_1581230717232" xmlns:xlink="http://www.w3.org/1999/xlink" width="200" height="200"><defs><style type="text/css"></style></defs><path d="M339.131246 178.518309c-0.124343-5.019063-0.380343-10.361417-0.762149-16.187978l-0.201874-2.954971c-0.285257-4.0448-0.590994-7.899429-1.021074-12.905326l-1.777372-20.250331c-1.323886-15.496046-1.724709-22.523611-1.780297-31.401692l-0.004389-1.037165c-0.016091-14.767543 1.645714-25.86624 5.788526-34.366903 11.01824-22.604069 30.949669-37.551543 60.698332-46.46912C426.57792 5.000046 461.443657 1.538926 509.557029 1.462857h5.965531l3.196343 0.024869c45.546057 0.349623 78.957714 3.918994 104.535771 11.713097 29.35808 8.948297 49.078857 23.829943 59.988846 46.21312 4.142811 8.4992 5.80608 19.59936 5.788526 34.366903l-0.011703 2.080183c-0.08192 8.459703-0.506149 15.570651-1.797852 30.661485l-1.813942 20.655543-0.406675 4.893257a742.531657 742.531657 0 0 0-0.343771 4.429532l-0.314514 4.398811-0.196023 2.985692c-0.428617 6.869577-0.677303 13.063314-0.735817 18.863542l8.759588 44.266058 7.118263 1.9456c48.275749 13.246171 86.157897 24.649143 113.68448 34.225005l2.946194 1.031315 2.935955 1.043017c30.232869 10.804663 46.641737 19.003977 51.709074 27.092114 6.568229 10.487223 2.469303 20.929097-8.300252 29.015771-4.729417 3.550354-10.937783 6.890057-18.51392 10.083475 59.874743 50.076526 92.556434 109.922011 92.556435 182.225188v3.946789c-0.157989 63.372434-4.057966 105.877211-13.503635 145.051063l-0.292571 1.211245c-8.74496 35.769783-21.326994 67.781486-47.942217 124.573989l-2.5088 5.340891c-24.628663 52.2752-67.221211 108.546926-114.837212 151.929418-51.252663 46.695863-103.355246 74.335086-146.426148 74.386285l-99.107109 2.709212h-0.765074l-99.104183-2.707749-1.294628-0.01024c-42.817829-0.596846-94.39232-28.148297-145.132983-74.377508-47.616-43.382491-90.207086-99.654217-114.835749-151.929418l-2.460526-5.235565c-26.100297-55.686583-38.715977-87.556389-47.444845-122.4704l-0.545646-2.208915-0.58368-2.423954C90.094446 621.812297 86.308571 578.579017 86.308571 513.676434c0-66.106514 27.305691-121.777006 77.7216-169.097508-3.575223 0.689006-6.168869 1.000594-8.290011 1.035703l-1.184914 0.001462-2.327406-0.014628c-20.845714-0.236983-31.899063-2.976914-35.31776-12.108069-2.39616-6.404389 0.422766-12.138789 6.173257-17.516251 4.049189-3.7888 10.131749-7.896503 18.367634-12.495726l1.8432-1.019611c30.744869-16.790674 91.456366-41.04192 182.49728-72.954149l5.727086-2.004114 7.612709-48.985234zM668.142446 196.022857h-2.229395l-0.062902-8.715703c-0.057051-7.947703 0.24576-16.401554 0.877714-26.075428l0.210651-3.095406 0.231132-3.171474c0.185783-2.470766 0.387657-4.989806 0.629028-7.85408l1.882697-21.498149c1.233189-14.35648 1.670583-21.312366 1.772983-28.911908l0.023406-2.883292c0.016091-12.346514-1.29024-21.128046-4.01408-26.711771C650.732983 32.77824 606.395246 19.265829 513.860754 19.017143h-5.510583c-92.432091 0.270629-136.465554 13.76256-153.197714 48.088503-2.722377 5.585189-4.030171 14.36672-4.01408 26.713234l0.011703 1.8432c0.077531 8.063269 0.500297 15.013303 1.805166 30.183131l1.620845 18.427612 0.529555 6.313691c0.179931 2.22208 0.33792 4.286171 0.488594 6.373669l0.191634 2.735543c0.702171 10.320457 1.041554 19.246811 0.980115 27.612891l-0.062903 8.715703h-2.527817l-6.928092 44.589349-7.906743 2.753097-8.578194 2.998857c-90.546469 31.760091-150.618697 55.809463-179.848046 71.940388l-0.904045 0.50176c-5.533989 3.089554-9.802606 5.829486-12.750263 8.134949 3.964343 0.67584 9.435429 1.057646 16.334263 1.113234l1.755428 0.007315c3.572297 0 13.531429-2.352274 35.670309-8.360229l49.7152-13.600183-36.385646 27.507566C139.076754 382.956983 103.862857 441.646811 103.862857 513.676434c0 63.6416 3.671771 105.589029 12.734172 143.711086l0.561737 2.328869 0.509074 2.059702c8.392411 33.582811 20.655543 64.566126 46.300891 119.290149l2.46784 5.251657c23.617829 50.129189 64.814811 104.557714 110.779246 146.434926 48.376686 44.075886 96.9216 69.810469 134.72768 69.810468l0.238446 0.002926 99.10272 2.704823 99.149531-2.704823 0.239909-0.002926c37.80608 0 86.352457-25.734583 134.72768-69.810468 45.962971-41.877211 87.159954-96.305737 110.777783-146.433463l2.419565-5.149257c25.664366-54.754743 37.937737-85.74976 46.334538-119.329646l0.523702-2.124068 0.551498-2.282058c8.883931-37.356983 12.592274-78.379886 12.744411-139.88864v-3.869257c0-71.0656-34.287909-129.155657-97.909029-178.095543l-13.095497-10.074697 15.67744-5.21216 1.86368-0.629028c11.966171-4.087223 21.046126-8.290011 26.435292-12.336275l0.68608-0.52224c3.468434-2.684343 3.98336-3.797577 3.395291-4.929828l-0.117028-0.2048c-0.668526-1.067886-4.549486-3.753691-11.158675-7.027566l-1.19808-0.585143-1.398491-0.667063c-7.150446-3.360183-16.618057-7.162149-28.370652-11.381028l-3.4816-1.23904-3.882422-1.356069c-28.335543-9.812846-67.875109-21.635657-118.571886-35.445028l-10.563292-2.8672-8.920502-45.079406zM511.40608 1005.273966l-0.096549 3.525485-0.096548-3.525485 0.096548-0.002926 0.096549 0.002926z" fill="#91000A" p-id="4501"></path><path d="M511.166171 10.24h2.717989c89.351314 0.242834 141.655771 12.36992 161.470171 53.019794 20.013349 41.060937-32.241371 171.81696 34.83648 198.552137 107.309349 48.101669 217.339611 122.597669 217.339612 251.864503 0 129.265371-14.988434 173.606034-63.410469 276.383452-48.423497 102.777417-167.914057 221.280549-253.445851 221.280548l-99.224137 2.707749h-0.285257l-99.221212-2.707749c-85.533257 0-205.023817-118.503131-253.445851-221.280548C110.074149 687.282469 95.085714 642.940343 95.085714 513.676434c0-129.266834 110.031726-203.761371 217.341075-251.864503 67.076389-26.735177 14.821669-157.4912 34.83648-198.552137C367.276617 22.20032 420.15744 10.24 511.166171 10.24z" fill="#D8000F" p-id="4502"></path><path d="M513.88416 10.24c16.726309 0.045349 32.155063 0.507611 46.314057 1.49504-61.425371 4.284709-98.816 18.481737-114.92352 51.524754-20.014811 41.060937 32.239909 171.81696-34.83648 198.552137C303.128869 309.9136 193.097143 384.4096 193.097143 513.676434c0 129.265371 14.988434 173.606034 63.411931 276.383452 48.422034 102.777417 167.914057 221.280549 253.445852 221.280548l50.358857 1.373623-48.862354 1.334126h-0.28672l-99.221212-2.707749c-85.533257 0-205.023817-118.503131-253.445851-221.280548C110.074149 687.282469 95.085714 642.940343 95.085714 513.676434c0-129.266834 110.031726-203.761371 217.341075-251.864503 67.076389-26.735177 14.821669-157.4912 34.83648-198.552137C367.276617 22.20032 420.15744 10.24 511.166171 10.24h2.717989z" fill="#C40714" p-id="4503"></path><path d="M261.676118 621.714286m20.687924-20.687924l208.948034-208.948034q20.687924-20.687924 41.375848 0l208.948034 208.948034q20.687924 20.687924 0 41.375848l-208.948034 208.948033q-20.687924 20.687924-41.375848 0l-208.948034-208.948033q-20.687924-20.687924 0-41.375848Z" fill="#FFE400" p-id="4504"></path><path d="M526.628571 387.42016l-0.0512 0.029257a29.301029 29.301029 0 0 0-6.007954 4.62848L311.620754 601.02656c-11.424914 11.424914-11.424914 29.950537 0 41.375451l208.948663 208.948663a29.29664 29.29664 0 0 0 6.059154 4.657737c-11.187931 6.465829-25.74336 4.9152-35.316297-4.657737L282.363611 642.402011c-11.424914-11.424914-11.424914-29.950537 0-41.375451l208.948663-208.948663c9.572937-9.571474 24.128366-11.125029 35.316297-4.657737z" fill="#FFA700" p-id="4505"></path><path d="M473.412754 529.700571v19.748572h41.033143v21.723428h-35.986286v153.6h19.748572v-8.996571h91.721143v8.338286h19.748571V571.172571h-37.741714V549.449143h43.008v-19.748572h-141.531429z m24.795429 167.204572v-17.554286h91.721143v17.554286h-91.721143z m18.212571-106.861714v10.532571c-0.219429 16.018286-6.363429 28.086857-18.212571 35.986286v-46.518857h18.212571z m-18.212571 50.468571l11.190857 9.654857c15.798857-10.313143 23.917714-26.770286 24.356571-49.590857v-10.532571h18.870858v33.353142c0 12.288 6.363429 18.651429 19.090285 18.651429h18.212572v18.870857h-91.721143v-20.406857z m35.986286-69.339429V549.449143h17.993142v21.723428h-17.993142z m55.734857 53.979429h-13.385143c-4.388571 0-6.582857-2.194286-6.582857-6.144v-28.964571h19.968v35.108571z m-156.452572-100.278857l-14.921143 14.262857c16.018286 11.410286 28.525714 21.942857 37.522286 31.817143l14.921143-15.140572c-10.313143-10.313143-22.820571-20.626286-37.522286-30.939428z m-5.485714 52.443428l-14.921143 14.482286c15.798857 11.410286 28.306286 21.942857 37.083429 32.036572l14.701714-14.921143c-9.874286-10.532571-22.162286-21.065143-36.864-31.597715z m21.065143 58.806858l18.432 7.021714c-9.654857 28.086857-20.626286 54.637714-32.694857 79.213714l-19.309715-8.557714c12.946286-25.453714 24.137143-51.346286 33.572572-77.677714z" fill="#D8000F" p-id="4506"></path><path d="M339.13856 178.468571h345.72288l7.554194 48.612206 5.295543 1.446766 10.591086 2.9184c44.004206 12.192914 78.886034 22.769371 104.676206 31.741074l2.940342 1.029852 2.937418 1.043017c30.232869 10.804663 46.641737 19.003977 51.709074 27.092114 3.834149 6.122057 4.05504 12.900937 0.765074 19.061029-2.530743 4.74112-6.938331 8.840046-13.006263 12.653714-9.493943 5.961143-23.399863 11.392731-40.935131 16.471771-12.8512 3.722971-27.046766 7.077303-41.670949 10.026423l-3.7888 0.753372c-9.081417 1.778834-17.503086 3.23584-21.71904 3.864868l-1.26976 0.181394c-13.714286 1.828571-26.084206-0.484206-37.911405-6.517028-8.917577-4.549486-16.651703-10.498926-27.33056-20.333714l-1.584275-1.467246-10.070308-9.460297-2.229395-2.05824c-9.675337-8.866377-16.379611-14.082926-24.147382-18.461257-11.127954-6.271269-22.684526-9.30816-36.072595-8.88832-8.828343 0.277943-28.936777 10.509166-73.296457 36.278857l-18.3296 10.664228c-16.427886 9.527589-24.84224 14.252617-34.245486 19.198537l-2.573165 1.345829-1.717395 0.885029c-15.003063 7.69024-25.453714 11.802331-32.816274 12.324571-13.901531 0.984503-24.665234-2.489783-32.981577-10.171246-5.961143-5.506194-9.450057-11.231817-15.057189-22.974171l-1.129325-2.377143-1.44384-3.014949c-7.738514-15.88224-13.535817-22.124251-25.360092-24.76032-17.823451-3.971657-49.726903-0.213577-93.564343 9.846492l-2.700434 0.623177-3.76832 0.886491a1288.409966 1288.409966 0 0 0-30.313326 7.609783l-10.702262 2.859886c-13.405623 3.611794-32.125806 8.72448-39.286492 10.673006l-6.897371 1.844663-3.88096 1.009371c-12.644937 3.253394-19.777829 4.686994-24.181029 4.686994l-0.794331-0.001463-2.327406-0.014628c-20.845714-0.236983-31.899063-2.976914-35.31776-12.108069-2.39616-6.404389 0.422766-12.138789 6.173257-17.516251 4.049189-3.7888 10.131749-7.896503 18.367634-12.495726l1.8432-1.019611c30.744869-16.790674 91.456366-41.04192 182.49728-72.954149l5.727086-2.004114 7.620023-49.034972z m15.038171 17.554286l-6.929554 44.590812-7.906743 2.753097-8.578194 2.998857c-90.546469 31.760091-150.618697 55.809463-179.848046 71.940388l-0.904045 0.50176c-5.533989 3.089554-9.802606 5.829486-12.750263 8.134949l1.022537 0.162377c3.861943 0.574903 8.987794 0.90112 15.311726 0.950857l1.911954 0.005852 0.345234-0.014629c3.110034-0.175543 10.706651-1.85344 23.31648-5.162423l6.632594-1.774445c8.59136-2.337646 33.774446-9.216 46.559818-12.624458l7.826285-2.056777 4.262766-1.101531a1188.15744 1188.15744 0 0 1 24.042057-5.930423l1.909029-0.446171c47.826651-11.132343 82.39104-15.336594 104.063268-10.50624 10.418469 2.321554 18.614857 7.305509 25.196252 14.7456 4.586057 5.184366 7.797029 10.545737 12.046628 19.295085l0.836755 1.734949 2.151862 4.524617c4.277394 8.905874 6.875429 13.215451 10.336549 16.57856l0.512 0.485669c4.634331 4.278857 10.613029 6.209829 19.830491 5.555931 8.616229-0.611474 26.375314-9.726537 69.993326-35.038354l18.260846-10.620343c16.364983-9.485166 26.341669-15.086446 35.987748-20.123063l3.396755-1.755429 1.758354-0.896731c15.64672-7.91552 26.566949-12.056869 34.274743-12.29824 16.694126-0.523703 31.398766 3.339703 45.24032 11.142583 10.471131 5.901166 18.856229 12.737097 32.014628 25.10848l8.483109 7.972571 1.397029 1.284389c19.849509 18.1248 32.490057 24.273189 50.521234 21.8112l0.630491-0.087772c0.91136-0.134583 2.720914-0.424229 4.932755-0.795794l5.226788-0.906971 2.998857-0.541257a658.666057 658.666057 0 0 0 6.259566-1.1776l3.241691-0.63488c14.982583-2.9696 29.529234-6.370743 42.513555-10.130286l2.124068-0.623177c15.077669-4.476343 26.903406-9.172114 34.356663-13.853257 3.711269-2.331794 6.012343-4.473417 6.8608-6.059155 0.332069-0.623177 0.329143-0.691931-0.159451-1.471634-0.667063-1.066423-4.54656-3.752229-11.157212-7.026103l-1.19808-0.585143-1.398491-0.667063c-7.150446-3.360183-16.618057-7.162149-28.370652-11.381028l-3.4816-1.23904-3.882422-1.356069c-28.335543-9.812846-67.875109-21.635657-118.571886-35.445028l-10.807589-2.933029L669.824731 196.022857H354.175269z" fill="#91000A" p-id="4507"></path><path d="M346.657646 187.245714h328.696685L684.617143 234.057143c111.674514 30.265051 171.177691 51.249737 178.509531 62.954057 17.836617 28.475977-108.141714 48.601966-114.521234 49.536731-57.831131 8.474331-72.016457-69.248731-139.285943-67.142217-27.302766 0.855771-136.159817 78.789486-163.325074 80.714606-47.357074 3.357257-31.752777-53.818514-73.439817-63.107657-52.738926-11.75552-196.940069 39.827749-217.205029 39.827748-74.169783 0-12.824869-34.260114 184.03328-102.783268l7.274789-46.811429z" fill="#FFE400" p-id="4508"></path><path d="M445.995886 187.245714c-0.362789 7.801417-1.171749 15.604297-2.431269 23.405715a190.450834 190.450834 0 0 1-5.332114 23.405714c-39.51616 32.482743-70.397074 52.959817-92.642743 61.428297-63.751314 3.213897-172.814629 41.354971-190.241646 41.354971-74.16832 0-12.823406-34.260114 184.034743-102.783268l7.274789-46.811429h99.336777z" fill="#FFA700" p-id="4509"></path></svg>